<svg width="88" height="88" viewBox="0 0 88 88" fill="none" xmlns="http://www.w3.org/2000/svg">
<path d="M44 0C19.8398 0 0.25 19.5898 0.25 43.75C0.25 67.9102 19.8398 87.5 44 87.5C68.1602 87.5 87.75 67.9102 87.75 43.75C87.75 19.5898 68.1602 0 44 0ZM58.0723 44.4238L36.7441 59.9414C36.6272 60.0254 36.4894 60.0756 36.3458 60.0864C36.2022 60.0972 36.0584 60.0682 35.9303 60.0026C35.8021 59.937 35.6945 59.8373 35.6193 59.7145C35.5441 59.5918 35.5041 59.4506 35.5039 59.3066V28.291C35.5034 28.1467 35.5429 28.0052 35.618 27.882C35.6931 27.7587 35.8008 27.6587 35.9292 27.593C36.0576 27.5273 36.2018 27.4984 36.3456 27.5095C36.4894 27.5207 36.6274 27.5715 36.7441 27.6563L58.0723 43.1641C58.173 43.2353 58.2552 43.3297 58.312 43.4393C58.3687 43.5489 58.3983 43.6705 58.3983 43.7939C58.3983 43.9174 58.3687 44.039 58.312 44.1486C58.2552 44.2582 58.173 44.3526 58.0723 44.4238Z" fill="#001524"/>
</svg>
