<svg width="26" height="25" viewBox="0 0 26 25" fill="none" xmlns="http://www.w3.org/2000/svg">
<path d="M24.4178 0H1.62899C1.00464 0 0.536377 0.46875 0.536377 1.09375V24.0625C0.536377 24.5312 1.00464 25 1.62899 25H13.0234V17.1875H9.90162V12.5H13.0234V9.375C13.0234 6.09375 14.8964 4.6875 17.706 4.6875C19.1108 4.6875 20.5156 4.6875 20.8277 4.6875V9.375H19.2669C18.3303 9.375 17.706 10 17.706 10.9375V12.5H21.7643L20.8277 17.1875H17.706V25H24.4178C25.0421 25 25.5104 24.5312 25.5104 23.9062V1.09375C25.5104 0.46875 25.0421 0 24.4178 0Z" fill="white"/>
</svg>
