<svg width="458" height="82" viewBox="0 0 458 82" fill="none" xmlns="http://www.w3.org/2000/svg">
<g clip-path="url(#clip0_1_251)">
<path d="M144.103 42.5666V50.0974C144.103 55.7302 143.181 59.4038 140.845 62.0365C138.633 64.5468 135.191 66.1387 130.089 66.1387C124.987 66.1387 121.546 64.5468 119.333 62.0365C116.997 59.4038 116.075 55.7302 116.075 50.0974V38.9543C116.075 33.5052 117.059 29.7092 119.456 27.0152C121.73 24.5049 125.172 23.0355 129.905 23.0355C134.207 23.0355 137.28 24.26 139.493 26.3417C141.583 28.4234 143.058 31.4847 143.427 36.6889L135.682 37.3012C135.436 35.0358 134.945 33.3215 134.084 32.097C133.162 30.8112 131.81 30.1377 129.905 30.1377C127.999 30.1377 126.586 30.75 125.664 31.8521C124.619 33.0766 124.127 34.8522 124.127 37.8522V51.1383C124.127 54.5057 124.68 55.9751 125.602 57.1384C126.586 58.363 128.184 58.9752 130.212 58.9752C132.24 58.9752 133.777 58.363 134.76 57.1384C135.682 55.9751 136.235 54.5057 136.235 51.1383V48.8729H129.966V42.5666H144.103Z" fill="#133D60"/>
<path d="M149.88 61.9703C147.606 59.3376 146.623 55.7865 146.623 50.0312V39.133C146.623 33.3165 147.606 29.7654 149.88 27.1327C152.155 24.4999 155.842 23.0305 160.575 23.0305C165.308 23.0305 168.996 24.4999 171.27 27.1327C173.544 29.7654 174.528 33.3165 174.528 39.133V50.0312C174.528 55.7865 173.544 59.3376 171.27 61.9703C168.996 64.603 165.308 66.1337 160.575 66.1337C155.842 66.1337 152.155 64.603 149.88 61.9703ZM164.939 57.2559C166.045 55.9701 166.476 54.2558 166.476 51.5006V37.6635C166.476 34.9084 166.045 33.1328 164.939 31.8471C163.956 30.8062 162.542 30.1327 160.575 30.1327C158.608 30.1327 157.195 30.8062 156.211 31.8471C155.105 33.1328 154.675 34.9084 154.675 37.6635V51.5006C154.675 54.2558 155.105 55.9701 156.211 57.2559C157.195 58.358 158.608 58.9702 160.575 58.9702C162.542 58.9702 163.956 58.358 164.939 57.2559Z" fill="#133D60"/>
<path d="M179.44 23.5249H187.43V58.8476H199.539V65.6437H179.44V23.5249Z" fill="#133D60"/>
<path d="M203.411 23.5249H215.704C220.867 23.5249 224.432 24.627 226.706 27.0148C229.226 29.5863 230.209 33.6272 230.209 38.9539V50.2195C230.209 55.5461 229.226 59.5258 226.706 62.1585C224.432 64.4851 220.867 65.6484 215.704 65.6484H203.411V23.5249ZM215.273 59.0313C217.793 59.0313 219.576 58.5415 220.621 57.317C221.789 55.97 222.096 53.8883 222.096 51.4393V37.7246C222.096 35.2144 221.789 33.1327 220.621 31.8469C219.576 30.5612 217.793 30.0714 215.273 30.0714H211.401V59.0313H215.273Z" fill="#133D60"/>
<path d="M246.795 62.3989C245.013 60.4396 243.906 57.6845 243.599 54.2558L251.036 53.3986C251.344 55.2966 251.774 56.4599 252.45 57.3171C253.31 58.6641 254.724 59.3988 256.63 59.3988C259.641 59.3988 261.424 57.6845 261.424 54.6844V54.3783C261.424 51.1333 260.256 49.8475 255.585 47.8883L253.065 46.8475C246.918 44.3984 243.968 41.0922 243.968 34.8471V34.2961C243.968 27.3776 248.639 23.0305 256.445 23.0305C259.949 23.0305 262.653 23.8265 264.681 25.4796C267.263 27.4388 268.738 30.5613 269.045 34.7859L261.67 35.6431C261.485 33.8675 261.055 32.5206 260.317 31.5409C259.457 30.3776 258.228 29.7654 256.384 29.7654C253.433 29.7654 251.835 31.4185 251.835 34.2349V34.541C251.835 37.4186 253.126 38.7656 257.367 40.4799L259.949 41.582C266.648 44.276 269.291 46.9087 269.291 53.6435V54.4395C269.291 61.5417 264.804 66.1337 256.691 66.1337C252.388 66.1337 249.008 64.8479 246.795 62.3989Z" fill="#133D60"/>
<path d="M279.064 30.321H270.643V23.5249H295.475V30.321H287.054V65.6437H279.064V30.321Z" fill="#133D60"/>
<path d="M313.295 56.6435H303.46C302.969 59.6436 302.477 62.6437 302.047 65.6437H293.811C296.331 51.5005 299.158 37.1736 302.108 23.5249H314.524C317.536 37.0559 320.425 51.5052 323.006 65.6437H314.708C314.217 62.5824 313.786 59.5211 313.295 56.6435ZM312.188 50.0311C311.881 48.378 311.635 46.7861 311.328 45.3167C310.59 40.7859 309.545 35.2756 308.562 30.6836H307.947C307.087 35.3368 306.042 40.7859 305.366 45.3167C305.12 46.7861 304.813 48.378 304.567 50.0311H312.188Z" fill="#133D60"/>
<path d="M344.883 65.6437C343.162 60.6844 341.195 55.2353 339.351 50.1535H334.864V65.6437H326.874V23.5249H338.921C347.648 23.5249 352.504 26.4638 352.504 35.5864V37.9743C352.504 43.7907 350.414 47.1582 346.665 48.8113C349.001 54.3828 351.275 60.0156 353.365 65.6484H344.883V65.6437ZM338.675 43.6023C342.424 43.6023 344.452 42.1329 344.452 37.7246V35.8879C344.452 31.5408 342.547 30.0714 338.675 30.0714H334.864V43.6023H338.675Z" fill="#133D60"/>
<path d="M366.329 23.5249H374.319V58.8476H386.428V65.6437H366.329V23.5249Z" fill="#133D60"/>
<path d="M389.25 23.5249H397.24V65.6437H389.25V23.5249Z" fill="#133D60"/>
<path d="M403.264 23.5249H410.148L417.831 39.1375C419.429 42.4438 421.458 46.9133 422.625 49.6684H422.81C422.748 46.4235 422.687 42.3213 422.687 39.26V23.5249H430.063V65.6437H423.301L415.434 49.6025C413.775 46.1738 411.869 41.9492 410.701 39.1328H410.517C410.578 42.3778 410.64 46.48 410.64 49.6025V65.6437H403.264V23.5249Z" fill="#133D60"/>
<path d="M435.897 23.5249H457.466V30.321H443.882V40.9743H456.482V47.7704H443.882V58.8523H457.466V65.6484H435.897V23.5249Z" fill="#133D60"/>
<path d="M105.91 45.9902C98.3165 35.5817 93.9573 23.1858 91.3569 10.5261C91.2623 10.0646 90.6855 9.73962 90.0756 9.79613C75.3337 11.2656 60.5775 8.4209 45.9207 4.48359C31.2639 0.998419 16.7584 -3.81018 2.09207 5.00166C1.48215 5.38315 1.04245 6.45696 1.11337 7.3518C3.10386 31.8705 2.67361 56.7989 0.475086 80.2249C0.39471 81.0774 1.00935 81.2846 1.83203 80.7148C17.6378 67.4711 35.2543 63.5385 55.6793 60.8822C72.9318 58.2401 91.111 54.4205 105.357 47.2241C105.943 46.9274 106.189 46.3716 105.91 45.9902Z" fill="#133D60"/>
<path d="M69.9774 29.3414C67.9112 31.5408 65.8214 33.7873 63.6749 36.0998C63.3298 36.4719 63.2636 36.9946 63.4953 37.4986C64.9562 40.6164 66.5023 43.6306 68.1571 46.5318C68.8379 47.7045 67.4384 48.8442 65.7694 48.4439C61.6939 47.4502 57.7224 46.2539 53.8548 44.9069C53.2307 44.6903 52.5594 44.728 52.044 45.0153C48.8337 46.8097 45.5525 48.7077 42.1719 50.7846C40.7914 51.6371 38.9238 50.7234 39.0184 49.1833C39.2264 45.425 39.4013 41.6761 39.5384 37.9272C39.5621 37.3243 39.2784 36.7215 38.7867 36.3023C35.7229 33.7026 32.7301 30.9992 29.7704 28.2487C28.5647 27.1325 28.9524 25.065 30.4086 24.806C33.9972 24.1701 37.5574 23.7698 41.1129 23.4778C41.6849 23.4307 42.1341 23.0916 42.3138 22.5688C43.439 19.3239 44.5218 16.1542 45.5808 13.06C46.0111 11.7978 47.8928 12.1463 48.7864 13.5969C50.9755 17.1527 53.1787 20.5484 55.4293 23.7792C55.7933 24.2973 56.3654 24.6788 56.9706 24.806C60.7246 25.583 64.4929 26.2518 68.2705 26.7463C69.8071 26.9536 70.8095 28.4465 69.9726 29.3414" fill="#FDC200"/>
</g>
<defs>
<clipPath id="clip0_1_251">
<rect width="457" height="81.035" fill="white" transform="translate(0.470703)"/>
</clipPath>
</defs>
</svg>
