<svg width="211" height="38" viewBox="0 0 211 38" fill="none" xmlns="http://www.w3.org/2000/svg">
<g clip-path="url(#clip0_1_106)">
<path d="M66.316 19.6534V23.1304C66.316 25.7311 65.8904 27.4272 64.812 28.6428C63.7904 29.8018 62.2012 30.5368 59.8458 30.5368C57.4904 30.5368 55.9012 29.8018 54.8795 28.6428C53.8012 27.4272 53.3755 25.7311 53.3755 23.1304V17.9855C53.3755 15.4697 53.8295 13.717 54.9363 12.4732C55.9863 11.3142 57.5755 10.6357 59.7606 10.6357C61.7471 10.6357 63.166 11.2011 64.1877 12.1622C65.1525 13.1234 65.8336 14.5368 66.0039 16.9396L62.4282 17.2223C62.3147 16.1764 62.0877 15.3848 61.6904 14.8195C61.2647 14.2258 60.6404 13.9149 59.7606 13.9149C58.8809 13.9149 58.2282 14.1976 57.8025 14.7064C57.3201 15.2718 57.0931 16.0916 57.0931 17.4767V23.611C57.0931 25.1657 57.3485 25.8442 57.7741 26.3813C58.2282 26.9467 58.966 27.2293 59.9025 27.2293C60.839 27.2293 61.5485 26.9467 62.0025 26.3813C62.4282 25.8442 62.6836 25.1657 62.6836 23.611V22.565H59.789V19.6534H66.316V19.6534Z" fill="white"/>
<path d="M68.9836 28.6121C67.9335 27.3965 67.4795 25.7569 67.4795 23.0997V18.0679C67.4795 15.3824 67.9335 13.7428 68.9836 12.5273C70.0336 11.3117 71.7363 10.6333 73.9214 10.6333C76.1065 10.6333 77.8092 11.3117 78.8592 12.5273C79.9092 13.7428 80.3633 15.3824 80.3633 18.0679V23.0997C80.3633 25.7569 79.9092 27.3965 78.8592 28.6121C77.8092 29.8276 76.1065 30.5343 73.9214 30.5343C71.7363 30.5343 70.0336 29.8276 68.9836 28.6121ZM75.9363 26.4354C76.4471 25.8417 76.6457 25.0502 76.6457 23.7781V17.3895C76.6457 16.1174 76.4471 15.2976 75.9363 14.704C75.4822 14.2234 74.8295 13.9124 73.9214 13.9124C73.0133 13.9124 72.3606 14.2234 71.9065 14.704C71.3957 15.2976 71.1971 16.1174 71.1971 17.3895V23.7781C71.1971 25.0502 71.3957 25.8417 71.9065 26.4354C72.3606 26.9442 73.0133 27.2269 73.9214 27.2269C74.8295 27.2269 75.4822 26.9442 75.9363 26.4354Z" fill="white"/>
<path d="M82.6313 10.8618H86.3205V27.1706H91.9111V30.3084H82.6313V10.8618Z" fill="white"/>
<path d="M93.699 10.8618H99.3747C101.758 10.8618 103.404 11.3706 104.454 12.4731C105.618 13.6604 106.072 15.5261 106.072 17.9855V23.1869C106.072 25.6462 105.618 27.4837 104.454 28.6992C103.404 29.7734 101.758 30.3105 99.3747 30.3105H93.699V10.8618ZM99.176 27.2554C100.34 27.2554 101.162 27.0292 101.645 26.4638C102.184 25.8419 102.326 24.8808 102.326 23.7501V17.4179C102.326 16.2589 102.184 15.2978 101.645 14.7042C101.162 14.1105 100.34 13.8844 99.176 13.8844H97.3882V27.2554H99.176V27.2554Z" fill="white"/>
<path d="M113.73 28.8099C112.907 27.9053 112.396 26.6333 112.254 25.0502L115.688 24.6545C115.83 25.5308 116.028 26.0679 116.34 26.4637C116.738 27.0856 117.39 27.4248 118.27 27.4248C119.661 27.4248 120.484 26.6333 120.484 25.2481V25.1068C120.484 23.6085 119.944 23.0149 117.788 22.1103L116.624 21.6297C113.786 20.499 112.424 18.9725 112.424 16.0891V15.8347C112.424 12.6404 114.581 10.6333 118.185 10.6333C119.803 10.6333 121.051 11.0008 121.988 11.764C123.18 12.6686 123.861 14.1103 124.003 16.0609L120.597 16.4566C120.512 15.6368 120.313 15.0149 119.973 14.5626C119.576 14.0255 119.008 13.7428 118.157 13.7428C116.794 13.7428 116.057 14.5061 116.057 15.8064V15.9478C116.057 17.2764 116.653 17.8983 118.611 18.6898L119.803 19.1987C122.896 20.4425 124.116 21.658 124.116 24.7675V25.135C124.116 28.4142 122.044 30.5343 118.299 30.5343C116.312 30.5343 114.751 29.9407 113.73 28.8099Z" fill="white"/>
<path d="M128.628 13.9996H124.74V10.8618H136.205V13.9996H132.318V30.3084H128.628V13.9996V13.9996Z" fill="white"/>
<path d="M144.433 26.1529H139.892C139.665 27.538 139.438 28.9232 139.24 30.3084H135.437C136.601 23.7783 137.906 17.1635 139.268 10.8618H145.001C146.391 17.1092 147.725 23.7805 148.917 30.3084H145.086C144.859 28.8949 144.66 27.4815 144.433 26.1529V26.1529ZM143.922 23.0999C143.78 22.3366 143.667 21.6017 143.525 20.9232C143.184 18.8314 142.702 16.2872 142.248 14.1671H141.964C141.567 16.3155 141.084 18.8314 140.772 20.9232C140.659 21.6017 140.517 22.3366 140.403 23.0999H143.922V23.0999Z" fill="white"/>
<path d="M159.017 30.3084C158.223 28.0186 157.315 25.5027 156.463 23.1564H154.392V30.3084H150.702V10.8618H156.265C160.294 10.8618 162.536 12.2187 162.536 16.4307V17.5332C162.536 20.2187 161.571 21.7735 159.84 22.5367C160.919 25.1091 161.969 27.7098 162.933 30.3105H159.017V30.3084ZM156.151 20.1317C157.882 20.1317 158.819 19.4533 158.819 17.4179V16.5699C158.819 14.5628 157.939 13.8844 156.151 13.8844H154.392V20.1317H156.151V20.1317Z" fill="white"/>
<path d="M168.919 10.8618H172.608V27.1706H178.199V30.3084H168.919V10.8618Z" fill="white"/>
<path d="M179.502 10.8618H183.191V30.3084H179.502V10.8618Z" fill="white"/>
<path d="M185.972 10.8618H189.151L192.698 18.0703C193.436 19.5968 194.372 21.6604 194.912 22.9325H194.997C194.968 21.4342 194.94 19.5402 194.94 18.1268V10.8618H198.345V30.3084H195.224L191.591 22.902C190.825 21.319 189.945 19.3685 189.406 18.0681H189.321C189.349 19.5663 189.378 21.4603 189.378 22.902V30.3084H185.972V10.8618Z" fill="white"/>
<path d="M201.039 10.8618H210.998V13.9996H204.726V18.9183H210.544V22.0561H204.726V27.1727H210.998V30.3105H201.039V10.8618Z" fill="white"/>
<path d="M48.6819 21.2342C45.1761 16.4286 43.1634 10.7053 41.9628 4.86021C41.9191 4.64711 41.6528 4.49707 41.3712 4.52317C34.5648 5.20161 27.7518 3.88821 20.9846 2.07033C14.2174 0.461202 7.52014 -1.75896 0.748613 2.30953C0.467012 2.48566 0.263997 2.98145 0.296742 3.3946C1.21577 14.715 1.01712 26.2247 0.00204289 37.0406C-0.0350673 37.4342 0.248717 37.5299 0.628551 37.2668C7.92617 31.1521 16.0599 29.3364 25.4902 28.11C33.4558 26.8901 41.8493 25.1265 48.4265 21.8039C48.6972 21.6669 48.8107 21.4103 48.6819 21.2342" fill="white"/>
<path d="M32.0915 13.5472C31.1376 14.5627 30.1727 15.6 29.1817 16.6677C29.0223 16.8394 28.9917 17.0808 29.0987 17.3135C29.7732 18.753 30.4871 20.1447 31.2511 21.4842C31.5654 22.0256 30.9193 22.5518 30.1487 22.367C28.267 21.9082 26.4333 21.3559 24.6477 20.734C24.3595 20.6339 24.0495 20.6513 23.8116 20.784C22.3294 21.6125 20.8144 22.4888 19.2536 23.4477C18.6162 23.8413 17.7539 23.4195 17.7976 22.7084C17.8936 20.9732 17.9744 19.2423 18.0377 17.5114C18.0486 17.233 17.9176 16.9547 17.6906 16.7612C16.276 15.5608 14.8942 14.3127 13.5277 13.0428C12.971 12.5274 13.15 11.5728 13.8224 11.4532C15.4793 11.1596 17.123 10.9748 18.7646 10.84C19.0287 10.8183 19.2361 10.6617 19.3191 10.4203C19.8386 8.92209 20.3385 7.45865 20.8275 6.03C21.0261 5.44724 21.895 5.60815 22.3075 6.2779C23.3182 7.91964 24.3355 9.48746 25.3746 10.9792C25.5427 11.2184 25.8068 11.3945 26.0862 11.4532C27.8195 11.812 29.5593 12.1208 31.3035 12.3491C32.013 12.4448 32.4757 13.1341 32.0894 13.5472" fill="#001524"/>
</g>
<defs>
<clipPath id="clip0_1_106">
<rect width="211" height="37.4144" fill="white"/>
</clipPath>
</defs>
</svg>
