<svg width="479" height="81" viewBox="0 0 479 81" fill="none" xmlns="http://www.w3.org/2000/svg">
<path d="M19.7071 65.8795L10.5872 9.02173C10.5872 9.02173 17.2186 5.90931 29.6893 8.3698C42.1179 10.8303 41.7113 9.49139 50.0041 8.61515C58.8016 7.6618 63.4212 10.4237 65.3769 10.9985C68.4333 11.9098 73.9711 10.9775 79.0604 11.356C83.0841 11.6505 82.8457 12.2323 87.2059 13.7815C90.8581 15.0853 95.5408 14.2441 95.5408 14.2441C95.5408 14.2441 95.2814 20.0203 98.5971 25.2428C101.99 30.5563 103.609 35.4422 104.079 43.1322C104.549 50.8291 103.707 59.234 107.395 64.6387C110.696 69.4826 110.058 71.1579 110.058 73.1558C110.058 75.5041 109.799 76.3243 109.484 76.3453C109.091 76.3663 108.348 76.0299 108.348 76.0299L108.516 74.8171C108.516 74.8171 100.504 72.2795 95.2463 71.5365C89.2669 70.6953 82.2569 73.8708 76.67 73.324C69.0081 72.581 63.4562 68.0525 57.4767 67.9754C50.8243 67.8983 47.116 70.4499 40.1411 69.076C33.1732 67.695 30.7688 65.4238 26.6329 64.9962C22.4971 64.5265 19.7211 65.8935 19.7211 65.8935" fill="#0A63A4"/>
<path d="M18.859 81.0002C17.7585 81.0002 17.1135 80.7058 16.9313 80.1239L16.9173 80.0609L5.68732 9.84917C3.19178 9.3725 1.27105 7.85134 0.997661 5.88154C0.857462 4.87211 1.15188 3.86968 1.85287 2.97241C2.93942 1.57743 4.88818 0.610057 7.07529 0.378729C10.7906 0.00019142 14.0923 1.82278 14.4638 4.45151C14.604 5.46795 14.3096 6.4844 13.5945 7.38868C12.9917 8.15277 12.1225 8.79067 11.099 9.24632C13.896 26.1824 22.5392 78.5187 22.4832 79.1215C22.4341 79.9277 21.4948 80.8249 19.4969 80.9792C19.2726 81.0002 19.0623 81.0072 18.866 81.0072M17.7935 79.8786C17.8496 79.9697 18.2281 80.194 19.4268 80.0959C21.0251 79.9767 21.5719 79.3458 21.5929 79.0584C21.5228 77.9719 14.2114 33.5358 10.2508 9.57579C9.66196 9.76505 9.03107 9.89123 8.38615 9.96133C7.78329 10.0244 7.18745 10.0314 6.61964 9.98236L17.7935 79.8786ZM8.0707 1.21992C7.77628 1.21992 7.47486 1.23394 7.16642 1.26899C5.21765 1.47929 3.4932 2.32049 2.55387 3.51919C2.00709 4.22018 1.76876 4.99829 1.88091 5.75536C2.18234 7.92845 5.06343 9.40755 8.28801 9.06406C10.2298 8.86778 11.9542 8.0336 12.8935 6.8419C13.4473 6.1339 13.6857 5.34878 13.5805 4.57769C13.3071 2.62892 10.9238 1.22693 8.0707 1.22693" fill="#0A63A4"/>
<path d="M47.9925 40.9802L27.0818 28.0118L51.9461 29.6311L55.8997 18.1138L63.4074 29.9115L87.6758 31.3486L70.5295 41.9686L82.7899 61.7858L60.1688 48.2916L41.2839 59.7108L47.9925 40.9802Z" fill="#998943"/>
<path d="M105.769 68.4873C105.705 68.4873 105.642 68.4733 105.586 68.4452C105.565 68.4382 103.511 67.5129 99.2282 66.4053C93.8936 65.0103 89.3372 65.6272 83.582 66.4123C78.4297 67.1063 76.3197 67.2115 69.8635 64.5757C64.5079 62.4026 54.8412 63.1106 54.7431 63.1177C53.3341 63.0966 51.6376 63.363 49.8361 63.6504C45.6021 64.3164 40.3306 65.1505 35.8512 62.8092C30.1311 59.816 23.717 60.3908 23.6539 60.3978C23.4086 60.4188 23.1913 60.2436 23.1702 59.9982C23.1492 59.7529 23.3245 59.5356 23.5698 59.5075C23.8432 59.4795 30.3134 58.8977 36.2718 62.0171C40.4918 64.2252 45.3848 63.4541 49.7029 62.7672C51.5465 62.4798 53.292 62.2064 54.722 62.2274C55.0865 62.1994 64.6481 61.4984 70.2 63.7486C76.4739 66.3002 78.3806 66.209 83.4698 65.5291C89.3302 64.7299 93.9567 64.099 99.4666 65.5431C103.834 66.6787 105.888 67.597 105.972 67.6391C106.196 67.7442 106.294 68.0036 106.196 68.2279C106.119 68.3891 105.958 68.4873 105.79 68.4873M94.4054 21.787C94.3212 21.787 94.2441 21.766 94.167 21.7169C94.139 21.7029 91.4822 20.0275 87.2342 18.9199C83.1964 17.8614 82.3693 17.9105 78.8853 18.1068C77.8198 18.1698 76.4879 18.2399 74.7495 18.303C74.2097 18.3171 73.691 18.3381 73.2003 18.3591C68.3354 18.5414 65.3912 18.6465 60.9328 16.4524C56.138 14.0971 48.1607 15.0154 48.0836 15.0224C46.0367 15.0995 44.3543 15.3589 42.728 15.6182C38.8164 16.2351 35.4306 16.7608 29.1637 14.4616C20.5205 11.3071 14.8494 13.3961 14.7933 13.4171C14.562 13.5082 14.3026 13.3891 14.2185 13.1577C14.1344 12.9264 14.2466 12.667 14.4779 12.5829C14.7232 12.4918 20.4994 10.3467 29.4792 13.6274C35.5288 15.8496 38.8094 15.3378 42.5948 14.742C44.2421 14.4826 45.9526 14.2162 48.0205 14.1391C48.3219 14.1041 56.2993 13.1858 61.3324 15.6603C65.5945 17.7563 68.4475 17.6511 73.1722 17.4759C73.6699 17.4548 74.1887 17.4408 74.7284 17.4198C76.4599 17.3567 77.7848 17.2866 78.8503 17.2235C82.4464 17.0202 83.3016 16.9782 87.4725 18.0647C91.8678 19.2073 94.5526 20.8967 94.6647 20.9738C94.875 21.107 94.9311 21.3804 94.7979 21.5907C94.7138 21.7239 94.5666 21.794 94.4194 21.794" fill="white"/>
<path d="M21.0811 58.9328C21.0811 58.9328 21.018 58.9328 20.99 58.9258C20.7516 58.8768 20.5904 58.6384 20.6395 58.4001C25.2801 35.5266 13.938 17.7213 13.8258 17.5461C13.6926 17.3428 13.7487 17.0624 13.959 16.9292C14.1623 16.796 14.4427 16.8521 14.5759 17.0624C14.695 17.2446 26.2334 35.3373 21.5157 58.5823C21.4737 58.7926 21.2844 58.9398 21.0811 58.9398" fill="white"/>
<path d="M148.613 33.0241L148.319 36.6202C146.545 35.8561 144.533 35.4986 142.297 35.4986C139.647 35.4986 137.545 36.2276 135.995 37.7137C134.558 39.1157 133.815 40.9383 133.815 43.1955C133.815 45.4527 134.523 47.2402 135.96 48.6773C137.397 50.1143 139.332 50.8013 141.793 50.8013C142.963 50.8013 143.994 50.7102 144.905 50.5069V44.969H139.949V41.6183H149.377V53.0585C146.391 53.7875 143.896 54.1591 141.814 54.1591C137.902 54.1591 134.825 53.2828 132.567 51.5514C130.184 49.6867 128.985 47.0229 128.985 43.518C128.985 40.013 130.121 37.1038 132.399 35.113C134.67 33.1362 137.825 32.1338 141.814 32.1338C144.218 32.1338 146.489 32.4282 148.669 33.01L148.613 33.0311V33.0241ZM153.759 43.0693C153.759 39.7536 154.761 37.1038 156.78 35.127C158.792 33.1502 161.61 32.1478 165.241 32.1478C168.872 32.1478 171.634 33.1502 173.681 35.1831C175.658 37.1599 176.66 39.7887 176.66 43.0693C176.66 46.35 175.693 49.0348 173.716 51.0116C171.683 53.0795 168.83 54.124 165.22 54.124C161.61 54.124 158.736 53.0795 156.682 51.0466C154.726 49.0698 153.759 46.4271 153.759 43.0693ZM158.644 43.0693C158.644 45.2354 159.149 47.0019 160.117 48.3618C161.287 49.9671 162.984 50.7662 165.241 50.7662C167.498 50.7662 169.187 49.9811 170.365 48.3618C171.332 47.0019 171.837 45.2354 171.837 43.0693C171.837 40.9032 171.332 39.2279 170.288 37.8679C169.11 36.2837 167.435 35.4986 165.276 35.4986C163.117 35.4986 161.42 36.2977 160.264 37.8679C159.219 39.2279 158.715 40.9803 158.715 43.0693H158.637H158.644ZM181.602 53.7455V32.4983H186.278V50.3877H195.356V53.7455H181.602ZM199.008 53.7455V32.4983H205.401C214.402 32.4983 218.895 36.0243 218.895 43.1254C218.895 50.2265 214.402 53.7455 205.401 53.7455H199.008ZM203.704 35.8561V50.3877H206.319C208.387 50.3877 210.175 49.7568 211.647 48.467C213.21 47.086 214.03 45.2985 214.03 43.0763C214.03 40.8542 213.231 39.0526 211.647 37.6927C210.175 36.4449 208.401 35.814 206.319 35.814H203.704V35.8491V35.8561ZM247.748 32.9119L247.32 36.4169C245.771 35.8 244.208 35.5056 242.568 35.5056C241.6 35.5056 240.794 35.7089 240.163 36.1225C239.322 36.6412 238.929 37.4263 238.929 38.4918C238.929 39.4382 239.806 40.2583 241.579 40.9523C244.432 42.0108 246.073 42.6838 246.535 42.9642C248.309 44.0787 249.178 45.663 249.178 47.7169C249.178 49.918 248.302 51.5584 246.57 52.6729C245.021 53.6403 242.988 54.124 240.423 54.124C238.873 54.124 236.883 53.8436 234.436 53.3038L234.864 49.4624C236.63 50.3386 238.404 50.7662 240.191 50.7662C241.236 50.7662 242.133 50.563 242.932 50.1353C243.864 49.6166 244.327 48.9226 244.327 48.0254C244.327 46.9598 243.451 46.0836 241.677 45.3826C238.642 44.1348 237.002 43.4408 236.756 43.2726C234.983 42.172 234.107 40.6228 234.107 38.611C234.107 36.3958 234.948 34.7135 236.644 33.5989C238.081 32.6315 239.96 32.1478 242.273 32.1478C244.32 32.1478 246.185 32.3932 247.86 32.9119H247.734H247.748ZM258.298 53.7455V35.8561H251.61V32.4983H269.689V35.8561H263.002V53.7455H258.305H258.298ZM270.916 53.7455L280.008 32.5193H285.3L294.469 53.7455H289.289L287.277 48.8806H277.807L275.76 53.7455H270.916ZM285.994 45.5298L282.622 36.7744H282.545L279.174 45.5298H285.994ZM297.806 53.7455V32.4983H302.853C306.428 32.4983 308.91 32.7016 310.249 33.1713C312.653 33.9564 313.866 35.6668 313.866 38.2605C313.866 39.5503 313.438 40.6298 312.562 41.5411C311.686 42.4524 310.515 42.9922 309.043 43.1815V43.2376C310.087 43.3287 310.922 44.0577 311.56 45.4387L315.303 53.7525H310.087L307.269 47.1211C306.898 46.3009 306.526 45.7611 306.134 45.4807C305.671 45.1443 304.963 44.955 304.031 44.955H302.517V53.7735H297.841L297.806 53.7525V53.7455ZM302.468 35.8561V41.5762H304.017C307.333 41.5762 308.973 40.6088 308.973 38.632C308.973 37.5104 308.433 36.7113 307.375 36.2837C306.667 36.0033 305.566 35.8561 304.059 35.8561H302.475H302.468ZM330.199 53.7455V32.4983H334.882V50.3877H343.96V53.7455H330.206H330.199ZM347.212 32.4983H351.888V53.7455H347.212V32.4983ZM357.349 53.7455V32.4983H363.146L372.076 48.3758V32.4983H376.57V53.7244H370.808L361.842 37.8469V53.7244H357.349V53.7455ZM382.437 53.7455V32.4983H396.226V35.8561H387.134V41.0925H395.462V44.4503H387.134V50.4157H396.303V53.7735H382.437V53.7525V53.7455ZM412.608 53.7455V32.4983H417.291V50.3877H426.369V53.7455H412.615H412.608ZM434.262 53.7455V35.8561H427.574V32.4983H445.653V35.8561H438.965V53.7455H434.269H434.262ZM449.305 53.7455V32.4983H455.698C464.699 32.4983 469.192 36.0243 469.192 43.1254C469.192 50.2265 464.699 53.7455 455.698 53.7455H449.305ZM453.988 35.8561V50.3877H456.595C458.663 50.3877 460.451 49.7568 461.909 48.467C463.472 47.086 464.292 45.2985 464.292 43.0763C464.292 40.8542 463.493 39.0526 461.909 37.6927C460.437 36.4449 458.663 35.814 456.595 35.814H453.988V35.8491V35.8561ZM473.763 49.4764H478.438V53.7455H473.763V49.4764Z" fill="#0A63A4"/>
</svg>
