<svg width="46" height="46" viewBox="0 0 46 46" fill="none" xmlns="http://www.w3.org/2000/svg">
<path d="M45.4999 22.9999C45.4999 35.4263 35.4263 45.4999 22.9999 45.4999C10.5736 45.4999 0.5 35.4263 0.5 22.9999C0.5 10.5736 10.5736 0.5 22.9999 0.5C35.4263 0.5 45.4999 10.5736 45.4999 22.9999Z" stroke="white"/>
<path d="M23.126 10.8691C24.5926 10.8691 25.7926 12.0692 25.7926 13.5358C25.7926 15.0025 24.5926 16.2025 23.126 16.2025C21.6593 16.2025 20.4593 15.0025 20.4593 13.5358C20.4593 12.0692 21.6593 10.8691 23.126 10.8691ZM35.126 20.2025H27.126V37.5358H24.4593V29.5358H21.7926V37.5358H19.126V20.2025H11.126V17.5358H35.126V20.2025Z" fill="white"/>
</svg>
