<svg width="131" height="131" viewBox="0 0 131 131" fill="none" xmlns="http://www.w3.org/2000/svg">
<g clip-path="url(#clip0_1_223)">
<path d="M106.072 81.4375C105.196 83.6233 106.255 86.1146 108.455 86.997L124.156 93.2829C124.678 93.5001 125.208 93.5951 125.744 93.5951C127.434 93.5951 129.043 92.5701 129.715 90.907C130.591 88.7212 129.525 86.23 127.332 85.3475L111.631 79.0549C109.473 78.186 106.948 79.2382 106.072 81.4375ZM23.8877 48.5761C24.7701 46.3835 23.7044 43.8922 21.5186 43.0098L5.89225 36.7239C3.71325 35.855 1.20163 36.9004 0.325958 39.0998C-0.556502 41.2856 0.509239 43.7768 2.70181 44.6661L18.3214 50.9383C18.8373 51.1488 19.3803 51.2506 19.9166 51.2506C21.6204 51.2506 23.2156 50.2392 23.8877 48.5693M24.2203 82.449C23.2903 80.2632 20.7583 79.2517 18.6133 80.1817L3.1702 86.7391C0.991198 87.6623 -0.0270258 90.1739 0.90974 92.3461C1.60892 93.9753 3.18377 94.9595 4.85366 94.9595C5.41029 94.9595 5.98049 94.8509 6.52355 94.6201L21.953 88.0628C24.1388 87.1464 25.1503 84.628 24.2135 82.4557M49.8048 18.5724L43.1524 3.14292C42.2293 0.970709 39.6701 -0.061091 37.5318 0.916404C35.3664 1.85317 34.3618 4.36479 35.2985 6.537L41.9577 21.9665C42.6569 23.5753 44.2318 24.5392 45.8881 24.5392C46.4515 24.5392 47.0285 24.4306 47.5783 24.193C49.7437 23.2562 50.7416 20.7446 49.8048 18.5724ZM50.9724 111.604C51.8481 109.412 50.7823 106.92 48.5898 106.045C46.3768 105.149 43.9059 106.228 43.0303 108.427L36.7444 124.128C35.8688 126.321 36.9345 128.812 39.1271 129.688C39.643 129.891 40.1792 130 40.7155 130C42.4058 130 44.0145 128.982 44.6798 127.312L50.9724 111.604ZM93.2966 5.87176C94.179 3.68597 93.1065 1.18114 90.9207 0.305469C88.7349 -0.570203 86.2369 0.481962 85.3544 2.68132L79.0686 18.3077C78.1793 20.4934 79.2451 22.9915 81.4377 23.8672C81.9603 24.0844 82.4966 24.1794 83.0397 24.1794C84.7299 24.1794 86.3387 23.168 87.0039 21.4981L93.2966 5.87176ZM94.6474 123.483L87.9882 107.952C87.0447 105.766 84.5127 104.768 82.3676 105.712C80.1886 106.642 79.1908 109.16 80.1208 111.333L86.7799 126.857C87.4859 128.479 89.0608 129.45 90.7171 129.45C91.2873 129.45 91.8507 129.342 92.4005 129.111C94.5727 128.181 95.5706 125.662 94.6474 123.49M129.009 37.5317C128.086 35.3595 125.554 34.3277 123.395 35.2984L107.966 41.9508C105.8 42.8876 104.796 45.3992 105.726 47.5714C106.425 49.187 108 50.1509 109.656 50.1509C110.226 50.1509 110.803 50.0355 111.353 49.8047L126.783 43.1523C128.948 42.2156 129.946 39.7039 129.016 37.5317" fill="#133D60"/>
<path d="M66.3408 35.3866L73.801 50.307C74.0182 50.7346 74.4255 51.0333 74.9007 51.108L91.3959 53.5924C92.5974 53.7757 93.0794 55.2555 92.2105 56.1108L80.3312 67.8136C79.9918 68.153 79.8289 68.635 79.9104 69.1102L82.6392 85.5647C82.836 86.7662 81.5802 87.6826 80.5009 87.1191L65.6959 79.4349C65.2683 79.2109 64.7592 79.2109 64.3315 79.4349L49.5266 87.1191C48.4472 87.6826 47.1846 86.7662 47.3883 85.5647L50.1171 69.1102C50.1986 68.635 50.0425 68.153 49.6963 67.8136L37.817 56.1108C36.9481 55.2555 37.4301 53.7757 38.6316 53.5924L55.1268 51.108C55.602 51.0333 56.016 50.7346 56.2265 50.307L63.6867 35.3866C64.2297 34.3005 65.7842 34.3005 66.334 35.3866" fill="#FDC200"/>
</g>
<defs>
<clipPath id="clip0_1_223">
<rect width="130" height="130.007" fill="white" transform="translate(0.0205078)"/>
</clipPath>
</defs>
</svg>
