<svg width="131" height="147" viewBox="0 0 131 147" fill="none" xmlns="http://www.w3.org/2000/svg">
<g clip-path="url(#clip0_1_218)">
<path d="M102.055 56.878C86.343 56.878 73.6165 44.1514 73.6165 28.439C73.6165 12.7265 86.3507 0 102.055 0C117.76 0 130.494 12.7265 130.494 28.439C130.494 44.1514 117.76 56.878 102.055 56.878Z" fill="#133D60"/>
<path d="M90.0351 101.812H23.9845C21.3747 101.812 19.2638 103.923 19.2638 106.533C19.2638 109.143 21.3747 111.261 23.9845 111.261H90.0351C92.6449 111.261 94.7634 109.15 94.7634 106.533C94.7634 103.916 92.6525 101.812 90.0351 101.812ZM76.0881 68.7756H24.0075C21.3977 68.7756 19.2869 70.8864 19.2869 73.4962C19.2869 76.106 21.3977 78.2168 24.0075 78.2168H76.0881C78.6979 78.2168 80.8087 76.106 80.8087 73.4962C80.8087 70.8864 78.6902 68.7756 76.0881 68.7756ZM51.4103 35.7541H24.0075C21.3977 35.7541 19.2869 37.8649 19.2869 40.4747C19.2869 43.0845 21.3977 45.1954 24.0075 45.1954H51.4103C54.02 45.1954 56.1309 43.0845 56.1309 40.4747C56.1309 37.8649 54.0124 35.7541 51.4103 35.7541M95.3007 146.992H18.7112C8.38717 146.992 0.0205078 138.626 0.0205078 128.302V18.6984C0.0205078 8.38205 8.38717 0.0153809 18.7112 0.0153809H79.5422C71.1525 6.67033 65.7487 16.9329 65.7487 28.4544C65.7487 48.473 82.0369 64.7688 102.063 64.7688C106.246 64.7688 110.238 64.0242 113.984 62.7116V128.309C113.984 138.633 105.609 147 95.293 147L95.3007 146.992Z" fill="#133D60"/>
<path d="M103.168 10.4315L107.997 20.0877C108.135 20.364 108.403 20.5559 108.71 20.602L119.387 22.2139C120.163 22.329 120.477 23.2885 119.917 23.8412L112.226 31.4172C112.003 31.6322 111.904 31.9469 111.957 32.2539L113.723 42.9003C113.853 43.6755 113.04 44.2666 112.341 43.9058L102.762 38.9319C102.485 38.786 102.155 38.786 101.879 38.9319L92.2994 43.9058C91.6009 44.2666 90.7873 43.6755 90.9178 42.9003L92.6832 32.2539C92.737 31.9469 92.6295 31.6322 92.4146 31.4172L84.7234 23.8412C84.1631 23.2885 84.4701 22.329 85.253 22.2139L95.9224 20.602C96.2295 20.5559 96.4981 20.364 96.6363 20.0877L101.464 10.4315C101.817 9.72531 102.823 9.72531 103.176 10.4315" fill="#FDC200"/>
</g>
<defs>
<clipPath id="clip0_1_218">
<rect width="130.482" height="147" fill="white" transform="translate(0.0205078)"/>
</clipPath>
</defs>
</svg>
