<svg width="178" height="128" viewBox="0 0 178 128" fill="none" xmlns="http://www.w3.org/2000/svg">
<g clip-path="url(#clip0_1_213)">
<path d="M161.41 89.8054C161.41 101.516 151.914 111.011 140.216 111.011C131.647 111.011 123.921 105.848 120.635 97.9171C117.362 89.998 119.167 80.8754 125.233 74.8217C131.286 68.7681 140.409 66.9508 148.34 70.2243C156.259 73.4979 161.422 81.2364 161.422 89.8054M59.87 89.8054C59.87 95.4258 57.6315 100.83 53.6599 104.801C49.6763 108.773 44.2845 111.011 38.6521 111.011C30.0831 111.011 22.3566 105.836 19.0831 97.905C15.8095 89.9859 17.6268 80.8754 23.6925 74.8097C29.7462 68.756 38.8688 66.9387 46.7878 70.2243C54.7069 73.5099 59.87 81.2364 59.87 89.8054ZM172.121 69.6827L132.538 7.89461C129.601 3.16482 124.498 0.204194 118.938 -0.000402891C114.606 -0.0966836 110.417 1.55212 107.324 4.58496C104.219 7.60577 102.486 11.7579 102.486 16.0905V25.9954C102.486 27.2952 101.451 28.3543 100.163 28.3904H78.6928C77.4051 28.3543 76.3701 27.2952 76.3701 25.9954V16.608C76.4423 9.06202 71.3635 2.43068 64.0582 0.505071C57.3426 -1.15577 50.3141 1.6484 46.5953 7.48542L6.74711 69.6827C0.994338 78.8294 -0.558188 89.998 2.48669 100.36C5.53157 110.734 12.873 119.291 22.6575 123.877C32.43 128.462 43.7069 128.643 53.6238 124.358C63.5407 120.074 71.1469 111.745 74.5046 101.479C74.974 100.059 76.3099 99.0965 77.8143 99.1085H101.066C102.558 99.1085 103.906 100.059 104.376 101.479C107.709 111.781 115.316 120.146 125.245 124.454C135.173 128.763 146.474 128.594 156.283 123.985C166.08 119.388 173.433 110.795 176.454 100.396C179.475 90.01 177.898 78.8174 172.097 69.6587" fill="#133D60"/>
<path d="M90.2103 52.4611L94.4466 60.9338C94.5669 61.1745 94.8076 61.343 95.0724 61.3911L104.448 62.7992C105.134 62.9075 105.411 63.7379 104.917 64.2314L98.1654 70.8868C97.9729 71.0793 97.8766 71.3562 97.9247 71.6209L99.4773 80.9722C99.5856 81.6582 98.8755 82.1757 98.2617 81.8508L89.8492 77.482C89.6085 77.3617 89.3197 77.3617 89.079 77.482L80.6664 81.8508C80.0526 82.1757 79.3426 81.6462 79.4509 80.9722L81.0034 71.6209C81.0516 71.3562 80.9553 71.0793 80.7627 70.8868L74.011 64.2314C73.5176 63.75 73.7944 62.9075 74.4804 62.7992L83.8557 61.3911C84.1205 61.355 84.3612 61.1745 84.4816 60.9338L88.7179 52.4611C89.0308 51.8473 89.9094 51.8473 90.2223 52.4611" fill="#FDC200"/>
</g>
<defs>
<clipPath id="clip0_1_213">
<rect width="177" height="127.572" fill="white" transform="translate(0.958008)"/>
</clipPath>
</defs>
</svg>
