<svg width="154" height="122" viewBox="0 0 154 122" fill="none" xmlns="http://www.w3.org/2000/svg">
<path d="M43.8103 98.8141C51.9049 91.1592 58.0174 82.6383 62.1384 73.2424C66.2595 63.8556 68.3246 54.0267 68.3246 43.7649C68.3246 30.7579 65.1808 20.2197 58.8932 12.1226C52.5964 4.04394 44.3174 0 34.0471 0C24.9383 0 17.1388 3.25174 10.6299 9.75521C4.12105 16.2495 0.866619 24.1992 0.866619 33.5859C0.866619 40.375 2.56298 46.0494 5.96492 50.6C9.35764 55.1506 15.0368 59.4524 22.9931 63.4964C28.202 66.2415 31.8068 68.6641 33.835 70.7552C35.854 72.8555 36.8682 75.269 36.8682 78.014C36.8682 89.4274 24.5788 101.707 0 114.852L4.34231 122C21.2598 115.211 34.4158 107.482 43.8196 98.8141M113.546 111.056C118.819 107.952 124.203 103.871 129.707 98.8141C145.896 83.5042 154 65.1545 154 43.7741C154 30.7671 150.856 20.2289 144.569 12.1318C138.263 4.04394 130.057 0 119.935 0C110.826 0 102.98 3.28858 96.4067 9.85654C89.8241 16.4337 86.542 24.3374 86.542 33.5859C86.542 40.5223 88.1646 46.1507 91.4191 50.4894C94.6735 54.8281 100.417 59.1577 108.659 63.4964C117.906 68.268 122.544 73.1042 122.544 78.014C122.544 89.5748 110.254 101.854 85.6754 114.852L90.0085 122C100.417 117.809 108.263 114.161 113.546 111.056" fill="white"/>
</svg>
