<svg width="26" height="25" viewBox="0 0 26 25" fill="none" xmlns="http://www.w3.org/2000/svg">
<path d="M23.2248 0H1.79063C0.808489 0 0.010498 0.809152 0.010498 1.80246V23.1975C0.010498 24.1908 0.808489 25 1.79063 25H23.2248C24.2069 25 25.0105 24.1908 25.0105 23.1975V1.80246C25.0105 0.809152 24.2069 0 23.2248 0ZM7.5663 21.4286H3.86094V9.49777H7.57188V21.4286H7.5663ZM5.71362 7.8683C4.52501 7.8683 3.56519 6.9029 3.56519 5.71987C3.56519 4.53683 4.52501 3.57143 5.71362 3.57143C6.89666 3.57143 7.86206 4.53683 7.86206 5.71987C7.86206 6.90848 6.90224 7.8683 5.71362 7.8683ZM21.4558 21.4286H17.7505V15.625C17.7505 14.2411 17.7226 12.4609 15.8252 12.4609C13.8944 12.4609 13.5987 13.9676 13.5987 15.5246V21.4286H9.89331V9.49777H13.448V11.1272H13.4982C13.9949 10.1897 15.2058 9.20201 17.0083 9.20201C20.7583 9.20201 21.4558 11.6741 21.4558 14.8884V21.4286Z" fill="white"/>
</svg>
