<svg width="35" height="35" viewBox="0 0 35 35" fill="none" xmlns="http://www.w3.org/2000/svg">
<path d="M18.3428 0.540401L23.0669 10.4422C23.2015 10.7319 23.4636 10.925 23.761 10.977L34.2008 12.6261C34.9658 12.7449 35.2703 13.7254 34.7179 14.2974L27.1961 22.0673C26.9766 22.2901 26.8774 22.6096 26.927 22.929L28.6551 33.8558C28.7826 34.6506 27.9823 35.2598 27.3024 34.8883L17.932 29.7852C17.6629 29.6366 17.3371 29.6366 17.068 29.7852L7.69764 34.8883C7.01063 35.2598 6.21737 34.6506 6.34486 33.8558L8.07302 22.929C8.1226 22.617 8.02344 22.2901 7.80388 22.0673L0.282128 14.2974C-0.270317 13.7329 0.034233 12.7523 0.799157 12.6261L11.239 10.977C11.5435 10.9324 11.7985 10.7319 11.9331 10.4422L16.6572 0.540401C17.0042 -0.180134 17.9887 -0.180134 18.3287 0.540401" fill="#FDC200"/>
</svg>
