<svg width="1002" height="538" viewBox="0 0 1002 538" fill="none" xmlns="http://www.w3.org/2000/svg">
<g clip-path="url(#clip0_1_259)">
<path d="M303.836 517.787C301.392 515.419 299.744 511.989 299.175 507.574L305.068 506.93C305.485 509.791 306.375 512.084 307.929 513.713C309.653 515.513 312.021 516.499 315.034 516.499C320.586 516.499 324.034 513.315 324.034 507.499V506.835C324.034 501.113 322.158 498.821 315.527 495.884L310.695 493.762C303.495 490.579 300.142 486.562 300.142 479.211V478.396C300.142 469.889 305.693 464.583 314.693 464.583C318.786 464.583 322.291 465.569 325.076 468.108C327.615 470.4 329.244 473.83 329.737 478.415L323.939 479.078C323.522 476.293 322.708 474.171 321.4 472.617C319.847 470.817 317.649 469.832 314.617 469.832C309.388 469.832 306.11 472.769 306.11 478.244V478.983C306.11 484.061 308.478 486.505 314.125 489.044L318.861 491.166C326.8 494.766 329.983 498.196 329.983 506.532V507.347C329.983 516.176 324.432 521.747 314.939 521.747C310.278 521.747 306.527 520.439 303.817 517.825L303.836 517.787Z" fill="#133D60"/>
<path d="M366.968 492.36V521.065H361.075V493.269C361.075 489.991 360.507 487.718 359.029 486.069C357.722 484.516 355.6 483.531 352.89 483.531C350.522 483.531 348.305 484.269 346.6 485.747C344.724 487.377 343.568 489.745 343.568 493.838V521.065H337.676V462.12H343.568V483.208C345.937 480.272 349.859 478.377 354.368 478.377C358.366 478.377 361.568 479.855 363.69 482.147C365.907 484.516 366.968 487.869 366.968 492.36Z" fill="#133D60"/>
<path d="M376.612 462.101H382.656V470.116H376.612V462.101ZM376.688 479.021H382.581V521.046H376.688V479.021Z" fill="#133D60"/>
<path d="M422.729 495.05V505.017C422.729 510.568 421.593 514.983 419.054 517.768C416.761 520.307 413.502 521.69 409.485 521.69C404.824 521.69 400.902 519.72 398.534 516.783V537.966H392.641V479.021H398.117V483.853C400.41 480.575 404.578 478.377 409.485 478.377C413.483 478.377 416.761 479.76 419.054 482.299C421.593 485.084 422.729 489.499 422.729 495.05ZM416.837 495.619C416.837 491.848 416.174 488.665 414.62 486.543C413.237 484.667 411.096 483.512 407.989 483.512C402.835 483.512 398.496 486.865 398.496 493.402V506.646C398.496 513.183 402.835 516.536 407.989 516.536C411.096 516.536 413.218 515.4 414.62 513.505C416.174 511.383 416.837 508.2 416.837 504.429V495.6V495.619Z" fill="#133D60"/>
<path d="M446.11 465.209H452.154V521.046H446.11V465.209Z" fill="#133D60"/>
<path d="M470.401 484.023V511.648C470.401 514.831 471.537 516.063 474.398 516.063H479.306V521.046H472.769C467.54 521.046 464.508 518.261 464.508 512.709V484.004H457.876V479.021H464.508V467.501H470.401V479.021H479.798V484.004H470.401V484.023Z" fill="#133D60"/>
<path d="M503.52 517.787C501.076 515.419 499.427 511.989 498.859 507.574L504.751 506.93C505.168 509.791 506.059 512.084 507.612 513.713C509.337 515.513 511.705 516.499 514.718 516.499C520.269 516.499 523.718 513.315 523.718 507.499V506.835C523.718 501.113 521.842 498.821 515.21 495.884L510.379 493.762C503.179 490.579 499.825 486.562 499.825 479.211V478.396C499.825 469.889 505.377 464.583 514.377 464.583C518.469 464.583 521.974 465.569 524.76 468.108C527.299 470.4 528.928 473.83 529.421 478.415L523.623 479.078C523.206 476.293 522.391 474.171 521.084 472.617C519.53 470.817 517.332 469.832 514.301 469.832C509.071 469.832 505.794 472.769 505.794 478.244V478.983C505.794 484.061 508.162 486.505 513.808 489.044L518.545 491.166C526.484 494.766 529.667 498.196 529.667 506.532V507.347C529.667 516.176 524.115 521.747 514.623 521.747C509.962 521.747 506.21 520.439 503.501 517.825L503.52 517.787Z" fill="#133D60"/>
<path d="M537.928 462.101H543.972V470.116H537.928V462.101ZM538.004 479.021H543.896V521.046H538.004V479.021Z" fill="#133D60"/>
<path d="M604.489 492.436V521.046H598.597V493.326C598.597 490.048 598.028 487.68 596.626 485.975C595.395 484.497 593.519 483.531 590.828 483.531C588.289 483.531 586.243 484.269 584.784 485.747C583.06 487.472 582.17 490.086 582.17 493.762V521.065H576.277V493.345C576.277 490.067 575.709 487.699 574.307 485.994C573.075 484.516 571.199 483.549 568.509 483.549C565.97 483.549 563.923 484.364 562.465 485.766C560.74 487.49 559.85 490.105 559.85 493.781V521.084H553.957V479.059H559.433V483.549C561.555 480.518 565.326 478.396 569.987 478.396C573.738 478.396 576.845 479.703 579.062 482.242C579.725 482.981 580.199 483.796 580.692 484.686C582.662 481.086 587.077 478.396 592.306 478.396C596.058 478.396 599.165 479.703 601.382 482.242C603.599 484.781 604.489 488.21 604.489 492.455V492.436Z" fill="#133D60"/>
<path d="M644.07 495.05V505.017C644.07 510.568 642.933 514.983 640.394 517.768C638.101 520.307 634.842 521.69 630.826 521.69C626.165 521.69 622.243 519.72 619.874 516.783V537.966H613.982V479.021H619.457V483.853C621.75 480.575 625.918 478.377 630.826 478.377C634.823 478.377 638.101 479.76 640.394 482.299C642.933 485.084 644.07 489.499 644.07 495.05ZM638.177 495.619C638.177 491.848 637.514 488.665 635.96 486.543C634.577 484.667 632.436 483.512 629.329 483.512C624.175 483.512 619.855 486.865 619.855 493.402V506.646C619.855 513.183 624.194 516.536 629.329 516.536C632.436 516.536 634.558 515.4 635.96 513.505C637.514 511.383 638.177 508.2 638.177 504.429V495.6V495.619Z" fill="#133D60"/>
<path d="M652.899 512.141V462.101H658.792V511.478C658.792 514.661 659.928 516.063 663.036 516.063H665.65V521.046H661.653C655.514 521.046 652.899 518.014 652.899 512.141Z" fill="#133D60"/>
<path d="M676.204 501.758V503.311C676.204 508.958 677.019 512.311 678.989 514.358C680.372 515.835 682.589 516.726 685.45 516.726C687.819 516.726 689.865 516.082 691.419 514.509C692.555 513.372 693.711 511.478 694.204 508.465L699.755 509.204C699.111 513.543 697.463 516.65 695.094 518.696C692.726 520.743 689.372 521.728 685.45 521.728C680.865 521.728 677.038 520.421 674.404 517.806C671.126 514.528 670.312 509.867 670.312 502.932V495.733C670.312 489.594 671.789 485.179 674.65 482.318C677.095 479.874 680.619 478.396 685.204 478.396C689.789 478.396 693.294 479.874 695.758 482.318C698.619 485.179 700.096 489.594 700.096 495.733V501.777H676.223L676.204 501.758ZM676.204 495.865V497.097H694.185V495.865C694.185 491.034 693.294 487.775 691.494 485.728C690.017 484.099 687.97 483.284 685.204 483.284C682.438 483.284 680.372 484.099 678.914 485.728C677.114 487.775 676.223 491.034 676.223 495.865H676.204Z" fill="#133D60"/>
<path d="M85.9444 324.886V347.926C85.9444 365.149 83.1402 376.385 76.0161 384.437C69.2709 392.111 58.7932 396.98 43.2376 396.98C27.682 396.98 17.2042 392.111 10.4591 384.437C3.33494 376.385 0.530762 365.149 0.530762 347.926V313.84C0.530762 297.167 3.52441 285.571 10.838 277.329C17.7726 269.655 28.2504 265.165 42.6692 265.165C55.7806 265.165 65.1404 268.916 71.8856 275.283C78.2518 281.649 82.7423 291.009 83.8791 306.924L60.29 308.8C59.5321 301.865 58.0353 296.636 55.4206 292.885C52.6164 288.944 48.4859 286.897 42.6881 286.897C36.8903 286.897 32.5703 288.773 29.7662 292.146C26.5831 295.897 25.0862 301.316 25.0862 310.505V351.147C25.0862 361.454 26.7725 365.945 29.5767 369.507C32.5703 373.258 37.4398 375.115 43.6165 375.115C49.7933 375.115 54.4732 373.239 57.4669 369.507C60.271 365.945 61.9573 361.454 61.9573 351.147V344.212H42.8586V324.924H85.9254L85.9444 324.886Z" fill="#133D60"/>
<path d="M103.546 384.248C96.6116 376.195 93.6179 365.338 93.6179 347.736V314.408C93.6179 296.617 96.6116 285.76 103.546 277.708C110.481 269.655 121.716 265.165 136.135 265.165C150.554 265.165 161.79 269.655 168.724 277.708C175.659 285.76 178.653 296.617 178.653 314.408V347.736C178.653 365.338 175.659 376.195 168.724 384.248C161.79 392.3 150.554 396.98 136.135 396.98C121.716 396.98 110.481 392.3 103.546 384.248ZM149.417 369.829C152.79 365.888 154.097 360.658 154.097 352.227V309.899C154.097 301.468 152.79 296.049 149.417 292.108C146.424 288.925 142.123 286.859 136.116 286.859C130.11 286.859 125.809 288.925 122.815 292.108C119.443 296.049 118.135 301.468 118.135 309.899V352.227C118.135 360.658 119.443 365.888 122.815 369.829C125.809 373.201 130.11 375.077 136.116 375.077C142.123 375.077 146.424 373.201 149.417 369.829Z" fill="#133D60"/>
<path d="M186.118 266.643H210.465V374.698H247.355V395.483H186.118V266.643Z" fill="#133D60"/>
<path d="M255.407 266.643H292.866C308.592 266.643 319.449 270.015 326.383 277.31C334.057 285.173 337.051 297.527 337.051 313.821V348.286C337.051 364.581 334.057 376.745 326.383 384.797C319.449 391.921 308.592 395.464 292.866 395.464H255.407V266.624V266.643ZM291.54 375.248C299.213 375.248 304.651 373.751 307.834 369.999C311.396 365.888 312.325 359.522 312.325 352.019V310.07C312.325 302.396 311.396 296.03 307.834 292.089C304.651 288.148 299.213 286.651 291.54 286.651H279.736V375.229H291.54V375.248Z" fill="#133D60"/>
<path d="M383.869 385.555C378.431 379.568 375.059 371.136 374.13 360.658L396.791 358.044C397.719 363.842 399.046 367.404 401.092 370.037C403.707 374.149 408.027 376.403 413.824 376.403C422.995 376.403 428.433 371.155 428.433 361.985V361.056C428.433 351.128 424.871 347.206 410.641 341.2L402.968 338.017C384.248 330.532 375.248 320.415 375.248 301.316V299.63C375.248 278.466 389.477 265.165 413.256 265.165C423.923 265.165 432.165 267.609 438.342 272.649C446.205 278.636 450.695 288.186 451.643 301.108L429.172 303.722C428.603 298.284 427.296 294.173 425.06 291.179C422.445 287.617 418.694 285.741 413.066 285.741C404.086 285.741 399.216 290.8 399.216 299.402V300.331C399.216 309.141 403.157 313.253 416.079 318.501L423.942 321.874C444.348 330.116 452.401 338.168 452.401 358.764V361.208C452.401 382.921 438.74 396.98 414.014 396.98C400.902 396.98 390.614 393.039 383.869 385.555Z" fill="#133D60"/>
<path d="M480.689 287.428H455.034V266.643H530.69V287.428H505.036V395.483H480.689V287.428Z" fill="#133D60"/>
<path d="M583.117 367.953H553.161C551.665 377.123 550.168 386.313 548.86 395.483H523.774C531.448 352.227 540.069 308.402 549.05 266.643H586.868C596.039 308.023 604.849 352.227 612.712 395.483H587.437C585.94 386.123 584.633 376.763 583.136 367.953H583.117ZM579.744 347.737C578.816 342.678 578.058 337.808 577.13 333.318C574.875 319.467 571.692 302.604 568.698 288.565H566.822C564.208 302.794 561.024 319.467 558.959 333.318C558.201 337.808 557.273 342.678 556.534 347.737H579.744Z" fill="#133D60"/>
<path d="M675.617 395.483C670.368 380.307 664.381 363.652 658.773 348.115H645.112V395.483H620.765V266.643H657.465C684.048 266.643 698.846 275.624 698.846 303.533V310.828C698.846 328.619 692.48 338.907 681.054 343.966C688.179 360.999 695.094 378.241 701.46 395.464H675.617V395.483ZM656.707 328.069C668.132 328.069 674.309 323.579 674.309 310.089V304.48C674.309 291.179 668.511 286.689 656.707 286.689H645.093V328.069H656.707Z" fill="#133D60"/>
<path d="M735.736 266.643H760.083V374.698H796.973V395.483H735.736V266.643Z" fill="#133D60"/>
<path d="M805.575 266.643H829.922V395.483H805.575V266.643Z" fill="#133D60"/>
<path d="M840.779 266.643H861.753L885.153 314.39C890.022 324.507 896.199 338.168 899.761 346.6H900.33C900.14 336.671 899.951 324.128 899.951 314.769V266.643H922.422V395.483H901.826L877.858 346.429C872.799 335.951 867.002 323.029 863.44 314.409H862.871C863.061 324.337 863.25 336.88 863.25 346.429V395.483H840.779V266.643Z" fill="#133D60"/>
<path d="M936.272 266.643H1002V287.428H960.619V320.017H999.006V340.802H960.619V374.698H1002V395.483H936.272V266.643Z" fill="#133D60"/>
<path d="M660.004 140.379C636.908 108.605 623.664 70.7675 615.763 32.1154C615.478 30.7133 613.735 29.7091 611.878 29.8985C567.05 34.3701 522.183 25.6923 477.638 13.6798C433.056 3.05047 388.947 -11.6146 344.364 15.2714C342.507 16.4271 341.162 19.7239 341.389 22.4523C347.452 97.2935 346.126 173.366 339.457 244.873C339.21 247.487 341.086 248.113 343.587 246.369C391.656 205.936 445.22 193.943 507.309 185.833C559.774 177.781 615.043 166.109 658.356 144.131C660.137 143.221 660.876 141.516 660.042 140.379" fill="#133D60"/>
<path d="M550.736 89.563C544.446 96.2703 538.098 103.129 531.581 110.196C530.539 111.333 530.33 112.925 531.05 114.46C535.484 123.971 540.183 133.179 545.223 142.028C547.288 145.609 543.044 149.076 537.966 147.863C525.575 144.832 513.505 141.175 501.739 137.063C499.844 136.4 497.798 136.514 496.225 137.405C486.468 142.88 476.483 148.678 466.213 155.025C462.007 157.621 456.342 154.836 456.626 150.137C457.251 138.674 457.782 127.211 458.217 115.786C458.293 113.948 457.422 112.091 455.925 110.822C446.622 102.883 437.508 94.6409 428.508 86.2473C424.852 82.8368 426.026 76.5274 430.46 75.7506C441.373 73.818 452.211 72.5864 463.011 71.6959C464.754 71.5443 466.118 70.5212 466.668 68.9296C470.097 59.0203 473.375 49.3573 476.596 39.9026C477.904 36.0374 483.626 37.1174 486.354 41.5321C493.023 52.3888 499.712 62.7529 506.552 72.6054C507.65 74.1969 509.413 75.3527 511.232 75.7317C522.638 78.1 534.101 80.1463 545.602 81.6621C550.263 82.2873 553.332 86.8536 550.774 89.582" fill="#FDC200"/>
</g>
<defs>
<clipPath id="clip0_1_259">
<rect width="1001.45" height="537.985" fill="white" transform="translate(0.549805)"/>
</clipPath>
</defs>
</svg>
