<svg width="370" height="587" viewBox="0 0 370 587" fill="none" xmlns="http://www.w3.org/2000/svg">
<g filter="url(#filter0_f_1_263)">
<path d="M106.505 32.1633L126.208 71.7868C126.782 72.9226 127.858 73.7157 129.113 73.914L172.679 80.512C175.852 80.9987 177.125 84.9286 174.83 87.2L143.455 118.279C142.559 119.18 142.129 120.46 142.344 121.722L149.551 165.42C150.071 168.61 146.754 171.044 143.904 169.548L104.802 149.141C103.672 148.546 102.328 148.546 101.198 149.141L62.0964 169.548C59.2458 171.044 55.9111 168.61 56.4489 165.42L63.6562 121.722C63.8713 120.46 63.4589 119.18 62.5446 118.279L31.1699 87.2C28.8751 84.9286 30.148 80.9987 33.3213 80.512L76.8873 73.914C78.1423 73.7157 79.2359 72.9226 79.7917 71.7868L99.495 32.1633C100.929 29.2789 105.035 29.2789 106.487 32.1633" fill="#FDC200"/>
</g>
<g filter="url(#filter1_f_1_263)">
<path d="M243.584 494.973L252.491 512.804C252.751 513.315 253.237 513.672 253.804 513.761L273.499 516.73C274.933 516.949 275.509 518.718 274.471 519.74L260.288 533.725C259.883 534.131 259.688 534.707 259.786 535.275L263.044 554.939C263.279 556.375 261.779 557.47 260.491 556.797L242.815 547.614C242.304 547.346 241.696 547.346 241.185 547.614L223.509 556.797C222.221 557.47 220.713 556.375 220.956 554.939L224.214 535.275C224.312 534.707 224.125 534.131 223.712 533.725L209.529 519.74C208.491 518.718 209.067 516.949 210.501 516.73L230.196 513.761C230.763 513.672 231.257 513.315 231.509 512.804L240.416 494.973C241.064 493.676 242.92 493.676 243.576 494.973" fill="#FDC200"/>
</g>
<g filter="url(#filter2_f_1_263)">
<path d="M292.401 281.483L305.896 308.654C306.289 309.433 307.026 309.977 307.885 310.112L337.725 314.637C339.899 314.971 340.77 317.665 339.199 319.223L317.709 340.534C317.095 341.152 316.8 342.03 316.948 342.895L321.884 372.859C322.24 375.047 319.969 376.716 318.016 375.69L291.234 361.697C290.46 361.289 289.54 361.289 288.766 361.697L261.984 375.69C260.031 376.716 257.747 375.047 258.116 372.859L263.052 342.895C263.2 342.03 262.917 341.152 262.291 340.534L240.801 319.223C239.23 317.665 240.101 314.971 242.275 314.637L272.115 310.112C272.974 309.977 273.723 309.433 274.104 308.654L287.599 281.483C288.582 279.506 291.394 279.506 292.388 281.483" fill="#FDC200"/>
</g>
<defs>
<filter id="filter0_f_1_263" x="0" y="0" width="206" height="200" filterUnits="userSpaceOnUse" color-interpolation-filters="sRGB">
<feFlood flood-opacity="0" result="BackgroundImageFix"/>
<feBlend mode="normal" in="SourceGraphic" in2="BackgroundImageFix" result="shape"/>
<feGaussianBlur stdDeviation="15" result="effect1_foregroundBlur_1_263"/>
</filter>
<filter id="filter1_f_1_263" x="179" y="464" width="126" height="123" filterUnits="userSpaceOnUse" color-interpolation-filters="sRGB">
<feFlood flood-opacity="0" result="BackgroundImageFix"/>
<feBlend mode="normal" in="SourceGraphic" in2="BackgroundImageFix" result="shape"/>
<feGaussianBlur stdDeviation="15" result="effect1_foregroundBlur_1_263"/>
</filter>
<filter id="filter2_f_1_263" x="210" y="250" width="160" height="156" filterUnits="userSpaceOnUse" color-interpolation-filters="sRGB">
<feFlood flood-opacity="0" result="BackgroundImageFix"/>
<feBlend mode="normal" in="SourceGraphic" in2="BackgroundImageFix" result="shape"/>
<feGaussianBlur stdDeviation="15" result="effect1_foregroundBlur_1_263"/>
</filter>
</defs>
</svg>
