<svg width="474" height="657" viewBox="0 0 474 657" fill="none" xmlns="http://www.w3.org/2000/svg">
<g filter="url(#filter0_f_1_171)">
<path d="M137.448 278.457L159.916 323.458C160.57 324.748 161.796 325.649 163.227 325.874L212.904 333.367C216.523 333.92 217.974 338.383 215.358 340.963L179.582 376.259C178.56 377.283 178.069 378.737 178.314 380.17L186.533 429.798C187.126 433.422 183.344 436.186 180.093 434.486L135.506 411.31C134.218 410.635 132.685 410.635 131.397 411.31L86.8105 434.486C83.5601 436.186 79.7576 433.422 80.3709 429.798L88.5891 380.17C88.8344 378.737 88.3642 377.283 87.3216 376.259L51.5459 340.963C48.9292 338.383 50.3807 333.92 53.9991 333.367L103.676 325.874C105.107 325.649 106.354 324.748 106.988 323.458L129.455 278.457C131.091 275.181 135.772 275.181 137.428 278.457" fill="#FDC200"/>
</g>
<g filter="url(#filter1_f_1_171)">
<path d="M151.349 490.823L167.896 524.22C168.378 525.178 169.282 525.846 170.336 526.013L206.924 531.574C209.589 531.985 210.658 535.297 208.731 537.211L182.381 563.406C181.628 564.166 181.267 565.245 181.448 566.308L187.501 603.139C187.937 605.829 185.152 607.88 182.758 606.619L149.918 589.419C148.97 588.918 147.84 588.918 146.892 589.419L114.053 606.619C111.658 607.88 108.858 605.829 109.31 603.139L115.363 566.308C115.543 565.245 115.197 564.166 114.429 563.406L88.0792 537.211C86.1519 535.297 87.221 531.985 89.8861 531.574L126.475 526.013C127.529 525.846 128.447 525.178 128.914 524.22L145.461 490.823C146.666 488.392 150.114 488.392 151.334 490.823" fill="#FDC200"/>
</g>
<g filter="url(#filter2_f_1_171)">
<path d="M311.537 53.4921L343.152 117.456C344.073 119.289 345.799 120.57 347.813 120.89L417.717 131.541C422.809 132.326 424.852 138.67 421.169 142.337L370.826 192.507C369.388 193.962 368.698 196.028 369.043 198.065L380.607 268.606C381.442 273.757 376.12 277.686 371.546 275.27L308.804 242.328C306.992 241.368 304.834 241.368 303.022 242.328L240.28 275.27C235.706 277.686 230.355 273.757 231.218 268.606L242.783 198.065C243.128 196.028 242.466 193.962 240.999 192.507L190.656 142.337C186.974 138.67 189.016 132.326 194.108 131.541L264.013 120.89C266.027 120.57 267.782 119.289 268.673 117.456L300.289 53.4921C302.59 48.836 309.178 48.836 311.508 53.4921" fill="#FDC200"/>
</g>
<defs>
<filter id="filter0_f_1_171" x="0.211914" y="226" width="266.48" height="259" filterUnits="userSpaceOnUse" color-interpolation-filters="sRGB">
<feFlood flood-opacity="0" result="BackgroundImageFix"/>
<feBlend mode="normal" in="SourceGraphic" in2="BackgroundImageFix" result="shape"/>
<feGaussianBlur stdDeviation="25" result="effect1_foregroundBlur_1_171"/>
</filter>
<filter id="filter1_f_1_171" x="37.0967" y="439" width="222.617" height="218" filterUnits="userSpaceOnUse" color-interpolation-filters="sRGB">
<feFlood flood-opacity="0" result="BackgroundImageFix"/>
<feBlend mode="normal" in="SourceGraphic" in2="BackgroundImageFix" result="shape"/>
<feGaussianBlur stdDeviation="25" result="effect1_foregroundBlur_1_171"/>
</filter>
<filter id="filter2_f_1_171" x="138.779" y="0" width="334.268" height="326" filterUnits="userSpaceOnUse" color-interpolation-filters="sRGB">
<feFlood flood-opacity="0" result="BackgroundImageFix"/>
<feBlend mode="normal" in="SourceGraphic" in2="BackgroundImageFix" result="shape"/>
<feGaussianBlur stdDeviation="25" result="effect1_foregroundBlur_1_171"/>
</filter>
</defs>
</svg>
