<svg width="455" height="882" viewBox="0 0 455 882" fill="none" xmlns="http://www.w3.org/2000/svg">
<g filter="url(#filter0_f_1_81)">
<path d="M109.359 327.677L133.644 376.631C134.36 378.037 135.683 379.01 137.221 379.263L190.906 387.41C194.84 387.986 196.378 392.853 193.552 395.665L154.854 434.093C153.745 435.21 153.208 436.796 153.494 438.347L162.4 492.348C163.044 496.277 158.967 499.305 155.426 497.431L107.213 472.232C105.818 471.511 104.173 471.511 102.778 472.232L54.5656 497.431C51.0605 499.269 46.9475 496.277 47.5912 492.348L56.497 438.347C56.7473 436.796 56.2466 435.21 55.1379 434.093L16.439 395.665C13.6135 392.853 15.1872 388.022 19.0857 387.41L72.7705 379.263C74.3085 379.01 75.6676 378.037 76.3471 376.631L100.632 327.677C102.421 324.108 107.464 324.108 109.252 327.677" fill="#FDC200"/>
</g>
<path d="M249.798 577.781L293.241 665.219C294.521 667.731 296.888 669.469 299.64 669.92L395.676 684.471C402.714 685.502 405.465 694.194 400.41 699.216L331.182 767.854C329.199 769.85 328.239 772.683 328.751 775.451L344.683 871.904C345.834 878.923 338.54 884.331 332.206 880.983L245.959 835.976C243.464 834.688 240.521 834.688 238.025 835.976L151.778 880.983C145.508 884.267 138.15 878.923 139.302 871.904L155.233 775.451C155.681 772.683 154.786 769.85 152.802 767.854L83.5742 699.216C78.5197 694.194 81.3349 685.566 88.3089 684.471L184.345 669.92C187.096 669.469 189.528 667.731 190.743 665.219L234.187 577.781C237.386 571.406 246.407 571.406 249.606 577.781" fill="#FDC200"/>
<g filter="url(#filter1_f_1_81)">
<path d="M132.373 160.454L145.595 187.054C145.985 187.818 146.705 188.347 147.542 188.484L176.771 192.91C178.913 193.224 179.75 195.868 178.212 197.396L157.142 218.276C156.539 218.883 156.247 219.745 156.403 220.587L161.251 249.929C161.602 252.064 159.382 253.709 157.454 252.691L131.205 238.999C130.446 238.607 129.55 238.607 128.79 238.999L102.541 252.691C100.633 253.69 98.3936 252.064 98.7441 249.929L103.593 220.587C103.729 219.745 103.456 218.883 102.853 218.276L81.7835 197.396C80.2451 195.868 81.1019 193.243 83.2244 192.91L112.453 188.484C113.29 188.347 114.03 187.818 114.4 187.054L127.622 160.454C128.596 158.515 131.341 158.515 132.315 160.454" fill="#FDC200"/>
</g>
<g filter="url(#filter2_f_1_81)">
<path d="M247.88 58.851L255.571 74.4145C255.797 74.8614 256.216 75.1709 256.703 75.2511L273.703 77.8412C274.949 78.0246 275.436 79.5717 274.542 80.4657L262.287 92.6827C261.936 93.038 261.766 93.5422 261.857 94.035L264.677 111.203C264.881 112.452 263.589 113.415 262.468 112.819L247.201 104.808C246.759 104.579 246.238 104.579 245.796 104.808L230.529 112.819C229.419 113.403 228.117 112.452 228.321 111.203L231.141 94.035C231.22 93.5422 231.061 93.038 230.71 92.6827L218.456 80.4657C217.561 79.5717 218.059 78.036 219.294 77.8412L236.294 75.2511C236.781 75.1709 237.211 74.8614 237.427 74.4145L245.117 58.851C245.683 57.7163 247.28 57.7163 247.846 58.851" fill="#FDC200"/>
</g>
<g filter="url(#filter3_f_1_81)">
<path d="M348.202 30.4332L352.115 38.3565C352.23 38.584 352.443 38.7415 352.691 38.7824L361.34 40.101C361.974 40.1943 362.222 40.982 361.767 41.4371L355.532 47.6566C355.353 47.8375 355.267 48.0942 355.313 48.3451L356.748 57.0852C356.852 57.7211 356.195 58.2112 355.624 57.9078L347.857 53.8295C347.632 53.7128 347.367 53.7128 347.142 53.8295L339.374 57.9078C338.81 58.2054 338.147 57.7211 338.251 57.0852L339.686 48.3451C339.726 48.0942 339.645 47.8375 339.467 47.6566L333.232 41.4371C332.777 40.982 333.03 40.2002 333.658 40.101L342.307 38.7824C342.555 38.7415 342.774 38.584 342.884 38.3565L346.796 30.4332C347.084 29.8556 347.897 29.8556 348.185 30.4332" fill="#FDC200"/>
</g>
<g filter="url(#filter4_f_1_81)">
<path d="M426.912 25.263L429.205 30.0736C429.273 30.2117 429.398 30.3074 429.543 30.3322L434.613 31.1327C434.985 31.1894 435.13 31.6676 434.863 31.9439L431.208 35.7201C431.104 35.8299 431.053 35.9858 431.08 36.1381L431.921 41.4446C431.982 41.8307 431.597 42.1283 431.262 41.944L426.709 39.4679C426.577 39.3971 426.422 39.3971 426.29 39.4679L421.737 41.944C421.406 42.1247 421.017 41.8307 421.078 41.4446L421.919 36.1381C421.943 35.9858 421.896 35.8299 421.791 35.7201L418.136 31.9439C417.869 31.6676 418.018 31.1929 418.386 31.1327L423.456 30.3322C423.601 30.3074 423.73 30.2117 423.794 30.0736L426.087 25.263C426.256 24.9123 426.733 24.9123 426.902 25.263" fill="#FDC200"/>
</g>
<defs>
<filter id="filter0_f_1_81" x="0" y="310" width="210" height="203" filterUnits="userSpaceOnUse" color-interpolation-filters="sRGB">
<feFlood flood-opacity="0" result="BackgroundImageFix"/>
<feBlend mode="normal" in="SourceGraphic" in2="BackgroundImageFix" result="shape"/>
<feGaussianBlur stdDeviation="7.5" result="effect1_foregroundBlur_1_81"/>
</filter>
<filter id="filter1_f_1_81" x="51" y="129" width="158" height="154" filterUnits="userSpaceOnUse" color-interpolation-filters="sRGB">
<feFlood flood-opacity="0" result="BackgroundImageFix"/>
<feBlend mode="normal" in="SourceGraphic" in2="BackgroundImageFix" result="shape"/>
<feGaussianBlur stdDeviation="15" result="effect1_foregroundBlur_1_81"/>
</filter>
<filter id="filter2_f_1_81" x="173" y="13" width="147" height="145" filterUnits="userSpaceOnUse" color-interpolation-filters="sRGB">
<feFlood flood-opacity="0" result="BackgroundImageFix"/>
<feBlend mode="normal" in="SourceGraphic" in2="BackgroundImageFix" result="shape"/>
<feGaussianBlur stdDeviation="22.5" result="effect1_foregroundBlur_1_81"/>
</filter>
<filter id="filter3_f_1_81" x="303" y="0" width="89" height="88" filterUnits="userSpaceOnUse" color-interpolation-filters="sRGB">
<feFlood flood-opacity="0" result="BackgroundImageFix"/>
<feBlend mode="normal" in="SourceGraphic" in2="BackgroundImageFix" result="shape"/>
<feGaussianBlur stdDeviation="15" result="effect1_foregroundBlur_1_81"/>
</filter>
<filter id="filter4_f_1_81" x="398" y="5" width="57" height="57" filterUnits="userSpaceOnUse" color-interpolation-filters="sRGB">
<feFlood flood-opacity="0" result="BackgroundImageFix"/>
<feBlend mode="normal" in="SourceGraphic" in2="BackgroundImageFix" result="shape"/>
<feGaussianBlur stdDeviation="10" result="effect1_foregroundBlur_1_81"/>
</filter>
</defs>
</svg>
