<svg width="25" height="21" viewBox="0 0 25 21" fill="none" xmlns="http://www.w3.org/2000/svg">
<path d="M24.974 2.6875C24.0375 3.15625 23.1009 3.3125 22.0083 3.46875C23.1009 2.84375 23.8814 1.90625 24.1935 0.65625C23.257 1.28125 22.1644 1.59375 20.9157 1.90625C19.9792 0.96875 18.5744 0.34375 17.1696 0.34375C14.5161 0.34375 12.1748 2.6875 12.1748 5.5C12.1748 5.96875 12.1748 6.28125 12.3309 6.59375C8.11654 6.4375 4.21436 4.40625 1.71696 1.28125C1.2487 2.0625 1.09261 2.84375 1.09261 3.9375C1.09261 5.65625 2.02914 7.21875 3.43392 8.15625C2.65349 8.15625 1.87305 7.84375 1.09261 7.53125C1.09261 10.0312 2.80957 12.0625 5.15088 12.5312C4.68262 12.6875 4.21436 12.6875 3.7461 12.6875C3.43392 12.6875 3.12175 12.6875 2.80957 12.5312C3.43392 14.5625 5.30697 16.125 7.64828 16.125C5.93132 17.5312 3.7461 18.3125 1.2487 18.3125C0.780437 18.3125 0.468262 18.3125 0 18.3125C2.34131 19.7188 4.9948 20.6562 7.80437 20.6562C17.1696 20.6562 22.3205 12.8438 22.3205 6.125C22.3205 5.96875 22.3205 5.65625 22.3205 5.5C23.4131 4.71875 24.3496 3.78125 24.974 2.6875Z" fill="white"/>
</svg>
