<svg width="50" height="48" viewBox="0 0 50 48" fill="none" xmlns="http://www.w3.org/2000/svg">
<path d="M26.0638 0.736957L32.7819 14.1731C32.9741 14.5576 33.3479 14.8246 33.7752 14.8887L48.6318 17.1316C49.7105 17.2918 50.1484 18.6268 49.3687 19.3958L38.6668 29.9375C38.3571 30.2366 38.2183 30.6745 38.293 31.1017L40.7495 45.9156C40.9311 46.9943 39.799 47.8167 38.827 47.3148L25.4977 40.3938C25.1132 40.1908 24.654 40.1908 24.2695 40.3938L10.9402 47.3148C9.96824 47.8167 8.8361 46.9943 9.01767 45.9156L11.4742 31.1017C11.549 30.6745 11.3994 30.2366 11.1004 29.9375L0.398482 19.3958C-0.381196 18.6268 0.0460275 17.2918 1.13544 17.1316L15.9814 14.8887C16.4086 14.8246 16.7824 14.5576 16.9747 14.1731L23.6927 0.736957C24.184 -0.245652 25.5832 -0.245652 26.0745 0.736957" fill="white"/>
</svg>
